<svg id="visual" viewBox="0 0 900 600" width="900" height="600" xmlns="http://www.w3.org/2000/svg" xmlns:xlink="http://www.w3.org/1999/xlink" version="1.1"><rect width="900" height="600" fill="#001829"></rect><g><g transform="translate(458 136)"><path d="M0 -54.2L47 -27.1L47 27.1L0 54.2L-47 27.1L-47 -27.1Z" fill="none" stroke="#297EA6" stroke-width="2"></path></g><g transform="translate(659 69)"><path d="M0 -35L30.3 -17.5L30.3 17.5L0 35L-30.3 17.5L-30.3 -17.5Z" fill="none" stroke="#297EA6" stroke-width="2"></path></g><g transform="translate(836 111)"><path d="M0 -33L28.6 -16.5L28.6 16.5L0 33L-28.6 16.5L-28.6 -16.5Z" fill="none" stroke="#297EA6" stroke-width="2"></path></g><g transform="translate(143 41)"><path d="M0 -38L32.9 -19L32.9 19L0 38L-32.9 19L-32.9 -19Z" fill="none" stroke="#297EA6" stroke-width="2"></path></g><g transform="translate(622 459)"><path d="M0 -30L26 -15L26 15L0 30L-26 15L-26 -15Z" fill="none" stroke="#297EA6" stroke-width="2"></path></g><g transform="translate(811 283)"><path d="M0 -34L29.4 -17L29.4 17L0 34L-29.4 17L-29.4 -17Z" fill="none" stroke="#297EA6" stroke-width="2"></path></g><g transform="translate(415 588)"><path d="M0 -46L39.8 -23L39.8 23L0 46L-39.8 23L-39.8 -23Z" fill="none" stroke="#297EA6" stroke-width="2"></path></g><g transform="translate(559 341)"><path d="M0 -37L32 -18.5L32 18.5L0 37L-32 18.5L-32 -18.5Z" fill="none" stroke="#297EA6" stroke-width="2"></path></g><g transform="translate(567 130)"><path d="M0 -43L37.2 -21.5L37.2 21.5L0 43L-37.2 21.5L-37.2 -21.5Z" fill="none" stroke="#297EA6" stroke-width="2"></path></g><g transform="translate(287 467)"><path d="M0 -44L38.1 -22L38.1 22L0 44L-38.1 22L-38.1 -22Z" fill="none" stroke="#297EA6" stroke-width="2"></path></g><g transform="translate(713 395)"><path d="M0 -48L41.6 -24L41.6 24L0 48L-41.6 24L-41.6 -24Z" fill="none" stroke="#297EA6" stroke-width="2"></path></g><g transform="translate(9 154)"><path d="M0 -47L40.7 -23.5L40.7 23.5L0 47L-40.7 23.5L-40.7 -23.5Z" fill="none" stroke="#297EA6" stroke-width="2"></path></g><g transform="translate(700 199)"><path d="M0 -40L34.6 -20L34.6 20L0 40L-34.6 20L-34.6 -20Z" fill="none" stroke="#297EA6" stroke-width="2"></path></g><g transform="translate(9 17)"><path d="M0 -37L32 -18.5L32 18.5L0 37L-32 18.5L-32 -18.5Z" fill="none" stroke="#297EA6" stroke-width="2"></path></g><g transform="translate(363 249)"><path d="M0 -27L23.4 -13.5L23.4 13.5L0 27L-23.4 13.5L-23.4 -13.5Z" fill="none" stroke="#297EA6" stroke-width="2"></path></g><g transform="translate(81 511)"><path d="M0 -43L37.2 -21.5L37.2 21.5L0 43L-37.2 21.5L-37.2 -21.5Z" fill="none" stroke="#297EA6" stroke-width="2"></path></g><g transform="translate(269 6)"><path d="M0 -39L33.8 -19.5L33.8 19.5L0 39L-33.8 19.5L-33.8 -19.5Z" fill="none" stroke="#297EA6" stroke-width="2"></path></g><g transform="translate(861 491)"><path d="M0 -53L45.9 -26.5L45.9 26.5L0 53L-45.9 26.5L-45.9 -26.5Z" fill="none" stroke="#297EA6" stroke-width="2"></path></g><g transform="translate(282 160)"><path d="M0 -28L24.2 -14L24.2 14L0 28L-24.2 14L-24.2 -14Z" fill="none" stroke="#297EA6" stroke-width="2"></path></g><g transform="translate(719 541)"><path d="M0 -35L30.3 -17.5L30.3 17.5L0 35L-30.3 17.5L-30.3 -17.5Z" fill="none" stroke="#297EA6" stroke-width="2"></path></g><g transform="translate(254 292)"><path d="M0 -40L34.6 -20L34.6 20L0 40L-34.6 20L-34.6 -20Z" fill="none" stroke="#297EA6" stroke-width="2"></path></g><g transform="translate(418 349)"><path d="M0 -40L34.6 -20L34.6 20L0 40L-34.6 20L-34.6 -20Z" fill="none" stroke="#297EA6" stroke-width="2"></path></g><g transform="translate(182 387)"><path d="M0 -48L41.6 -24L41.6 24L0 48L-41.6 24L-41.6 -24Z" fill="none" stroke="#297EA6" stroke-width="2"></path></g><g transform="translate(501 462)"><path d="M0 -41L35.5 -20.5L35.5 20.5L0 41L-35.5 20.5L-35.5 -20.5Z" stroke="#297EA6" fill="none" stroke-width="2"></path></g><g transform="translate(363 76)"><path d="M0 -31L26.8 -15.5L26.8 15.5L0 31L-26.8 15.5L-26.8 -15.5Z" stroke="#297EA6" fill="none" stroke-width="2"></path></g><g transform="translate(80 330)"><path d="M0 -30L26 -15L26 15L0 30L-26 15L-26 -15Z" stroke="#297EA6" fill="none" stroke-width="2"></path></g><g transform="translate(885 14)"><path d="M0 -51L44.2 -25.5L44.2 25.5L0 51L-44.2 25.5L-44.2 -25.5Z" stroke="#297EA6" fill="none" stroke-width="2"></path></g><g transform="translate(214 577)"><path d="M0 -33L28.6 -16.5L28.6 16.5L0 33L-28.6 16.5L-28.6 -16.5Z" stroke="#297EA6" fill="none" stroke-width="2"></path></g><g transform="translate(459 22)"><path d="M0 -36L31.2 -18L31.2 18L0 36L-31.2 18L-31.2 -18Z" stroke="#297EA6" fill="none" stroke-width="2"></path></g><g transform="translate(169 153)"><path d="M0 -29L25.1 -14.5L25.1 14.5L0 29L-25.1 14.5L-25.1 -14.5Z" stroke="#297EA6" fill="none" stroke-width="2"></path></g><g transform="translate(570 8)"><path d="M0 -29L25.1 -14.5L25.1 14.5L0 29L-25.1 14.5L-25.1 -14.5Z" stroke="#297EA6" fill="none" stroke-width="2"></path></g><g transform="translate(615 573)"><path d="M0 -36L31.2 -18L31.2 18L0 36L-31.2 18L-31.2 -18Z" stroke="#297EA6" fill="none" stroke-width="2"></path></g><g transform="translate(761 11)"><path d="M0 -27L23.4 -13.5L23.4 13.5L0 27L-23.4 13.5L-23.4 -13.5Z" stroke="#297EA6" fill="none" stroke-width="2"></path></g><g transform="translate(896 362)"><path d="M0 -37L32 -18.5L32 18.5L0 37L-32 18.5L-32 -18.5Z" stroke="#297EA6" fill="none" stroke-width="2"></path></g><g transform="translate(503 239)"><path d="M0 -47L40.7 -23.5L40.7 23.5L0 47L-40.7 23.5L-40.7 -23.5Z" stroke="#297EA6" fill="none" stroke-width="2"></path></g><g transform="translate(2 593)"><path d="M0 -51L44.2 -25.5L44.2 25.5L0 51L-44.2 25.5L-44.2 -25.5Z" stroke="#297EA6" fill="none" stroke-width="2"></path></g></g></svg>