<svg id="visual" viewBox="0 0 900 600" width="900" height="600" xmlns="http://www.w3.org/2000/svg" xmlns:xlink="http://www.w3.org/1999/xlink" version="1.1"><rect width="900" height="600" fill="#001829"></rect><g><g transform="translate(27 258)"><path d="M0 -54.2L47 -27.1L47 27.1L0 54.2L-47 27.1L-47 -27.1Z" fill="none" stroke="#297EA6" stroke-width="2"></path></g><g transform="translate(351 438)"><path d="M0 -45L39 -22.5L39 22.5L0 45L-39 22.5L-39 -22.5Z" fill="none" stroke="#297EA6" stroke-width="2"></path></g><g transform="translate(630 181)"><path d="M0 -30L26 -15L26 15L0 30L-26 15L-26 -15Z" fill="none" stroke="#297EA6" stroke-width="2"></path></g><g transform="translate(411 3)"><path d="M0 -42L36.4 -21L36.4 21L0 42L-36.4 21L-36.4 -21Z" fill="none" stroke="#297EA6" stroke-width="2"></path></g><g transform="translate(145 247)"><path d="M0 -53L45.9 -26.5L45.9 26.5L0 53L-45.9 26.5L-45.9 -26.5Z" fill="none" stroke="#297EA6" stroke-width="2"></path></g><g transform="translate(220 383)"><path d="M0 -28L24.2 -14L24.2 14L0 28L-24.2 14L-24.2 -14Z" fill="none" stroke="#297EA6" stroke-width="2"></path></g><g transform="translate(365 209)"><path d="M0 -33L28.6 -16.5L28.6 16.5L0 33L-28.6 16.5L-28.6 -16.5Z" fill="none" stroke="#297EA6" stroke-width="2"></path></g><g transform="translate(518 43)"><path d="M0 -47L40.7 -23.5L40.7 23.5L0 47L-40.7 23.5L-40.7 -23.5Z" fill="none" stroke="#297EA6" stroke-width="2"></path></g><g transform="translate(585 426)"><path d="M0 -37L32 -18.5L32 18.5L0 37L-32 18.5L-32 -18.5Z" fill="none" stroke="#297EA6" stroke-width="2"></path></g><g transform="translate(283 591)"><path d="M0 -50L43.3 -25L43.3 25L0 50L-43.3 25L-43.3 -25Z" fill="none" stroke="#297EA6" stroke-width="2"></path></g><g transform="translate(850 125)"><path d="M0 -50L43.3 -25L43.3 25L0 50L-43.3 25L-43.3 -25Z" fill="none" stroke="#297EA6" stroke-width="2"></path></g><g transform="translate(761 570)"><path d="M0 -43L37.2 -21.5L37.2 21.5L0 43L-37.2 21.5L-37.2 -21.5Z" fill="none" stroke="#297EA6" stroke-width="2"></path></g><g transform="translate(872 473)"><path d="M0 -51L44.2 -25.5L44.2 25.5L0 51L-44.2 25.5L-44.2 -25.5Z" fill="none" stroke="#297EA6" stroke-width="2"></path></g><g transform="translate(150 475)"><path d="M0 -53L45.9 -26.5L45.9 26.5L0 53L-45.9 26.5L-45.9 -26.5Z" fill="none" stroke="#297EA6" stroke-width="2"></path></g><g transform="translate(448 295)"><path d="M0 -38L32.9 -19L32.9 19L0 38L-32.9 19L-32.9 -19Z" fill="none" stroke="#297EA6" stroke-width="2"></path></g><g transform="translate(350 96)"><path d="M0 -45L39 -22.5L39 22.5L0 45L-39 22.5L-39 -22.5Z" fill="none" stroke="#297EA6" stroke-width="2"></path></g><g transform="translate(792 324)"><path d="M0 -35L30.3 -17.5L30.3 17.5L0 35L-30.3 17.5L-30.3 -17.5Z" fill="none" stroke="#297EA6" stroke-width="2"></path></g><g transform="translate(87 381)"><path d="M0 -36L31.2 -18L31.2 18L0 36L-31.2 18L-31.2 -18Z" fill="none" stroke="#297EA6" stroke-width="2"></path></g><g transform="translate(418 537)"><path d="M0 -40L34.6 -20L34.6 20L0 40L-34.6 20L-34.6 -20Z" fill="none" stroke="#297EA6" stroke-width="2"></path></g><g transform="translate(143 25)"><path d="M0 -37L32 -18.5L32 18.5L0 37L-32 18.5L-32 -18.5Z" fill="none" stroke="#297EA6" stroke-width="2"></path></g><g transform="translate(13 70)"><path d="M0 -47L40.7 -23.5L40.7 23.5L0 47L-40.7 23.5L-40.7 -23.5Z" fill="none" stroke="#297EA6" stroke-width="2"></path></g><g transform="translate(35 524)"><path d="M0 -46L39.8 -23L39.8 23L0 46L-39.8 23L-39.8 -23Z" fill="none" stroke="#297EA6" stroke-width="2"></path></g><g transform="translate(687 465)"><path d="M0 -39L33.8 -19.5L33.8 19.5L0 39L-33.8 19.5L-33.8 -19.5Z" fill="none" stroke="#297EA6" stroke-width="2"></path></g><g transform="translate(188 129)"><path d="M0 -32L27.7 -16L27.7 16L0 32L-27.7 16L-27.7 -16Z" stroke="#297EA6" fill="none" stroke-width="2"></path></g><g transform="translate(632 65)"><path d="M0 -47L40.7 -23.5L40.7 23.5L0 47L-40.7 23.5L-40.7 -23.5Z" stroke="#297EA6" fill="none" stroke-width="2"></path></g><g transform="translate(572 565)"><path d="M0 -53L45.9 -26.5L45.9 26.5L0 53L-45.9 26.5L-45.9 -26.5Z" stroke="#297EA6" fill="none" stroke-width="2"></path></g><g transform="translate(663 313)"><path d="M0 -44L38.1 -22L38.1 22L0 44L-38.1 22L-38.1 -22Z" stroke="#297EA6" fill="none" stroke-width="2"></path></g><g transform="translate(509 202)"><path d="M0 -39L33.8 -19.5L33.8 19.5L0 39L-33.8 19.5L-33.8 -19.5Z" stroke="#297EA6" fill="none" stroke-width="2"></path></g><g transform="translate(799 8)"><path d="M0 -44L38.1 -22L38.1 22L0 44L-38.1 22L-38.1 -22Z" stroke="#297EA6" fill="none" stroke-width="2"></path></g><g transform="translate(878 242)"><path d="M0 -52L45 -26L45 26L0 52L-45 26L-45 -26Z" stroke="#297EA6" fill="none" stroke-width="2"></path></g><g transform="translate(734 146)"><path d="M0 -48L41.6 -24L41.6 24L0 48L-41.6 24L-41.6 -24Z" stroke="#297EA6" fill="none" stroke-width="2"></path></g><g transform="translate(133 590)"><path d="M0 -27L23.4 -13.5L23.4 13.5L0 27L-23.4 13.5L-23.4 -13.5Z" stroke="#297EA6" fill="none" stroke-width="2"></path></g><g transform="translate(316 330)"><path d="M0 -53L45.9 -26.5L45.9 26.5L0 53L-45.9 26.5L-45.9 -26.5Z" stroke="#297EA6" fill="none" stroke-width="2"></path></g><g transform="translate(463 412)"><path d="M0 -37L32 -18.5L32 18.5L0 37L-32 18.5L-32 -18.5Z" stroke="#297EA6" fill="none" stroke-width="2"></path></g><g transform="translate(872 584)"><path d="M0 -28L24.2 -14L24.2 14L0 28L-24.2 14L-24.2 -14Z" stroke="#297EA6" fill="none" stroke-width="2"></path></g><g transform="translate(266 4)"><path d="M0 -53L45.9 -26.5L45.9 26.5L0 53L-45.9 26.5L-45.9 -26.5Z" stroke="#297EA6" fill="none" stroke-width="2"></path></g></g></svg>